<svg width="187" height="53" 
  xmlns="http://www.w3.org/2000/svg">
  <g fill="#B31B1B" fill-rule="evenodd">
    <path d="M90.015 33.032c-.654.41-1.77.657-2.461.657-2.692 0-4.538-1.641-4.538-4.35 0-1.395.5-2.462 1.385-3.241.845-.739 2-1.15 3.23-1.15 1.038 0 2.037.288 2.614.493-.115.574-.23 1.19-.23 1.805h-.347v-.861c0-.329-.461-.534-.96-.739a4.137 4.137 0 0 0-1.27-.205c-2.115 0-3.23 1.641-3.23 3.693 0 2.38 1.461 3.898 3.692 3.898.807 0 1.768-.328 2.268-.739l.116.124-.27.615zM91.783 30.365c0 1.272.423 2.914 1.885 2.914 1.038 0 1.46-1.109 1.46-2.217 0-1.559-.691-2.872-1.768-2.872-1.23.042-1.577 1.067-1.577 2.175m-1.076.534c0-1.806 1.038-3.078 2.884-3.078 1.422 0 2.537 1.19 2.537 2.749 0 1.847-1.23 3.119-2.96 3.119-1.385.04-2.461-1.149-2.461-2.79M97.282 29.544c0-.369-.039-.656-.077-.738-.077-.082-.192-.124-.423-.124h-.423v-.327c.654-.083 1.346-.288 1.769-.493l.115.04v1.19h.039l.615-.779c.27-.328.654-.492.961-.492.192 0 .423.04.5.123l-.115 1.436h-.231c-.115-.287-.346-.533-.769-.533-.5 0-1 .533-1 1.313v2.051c0 .329 0 .575.039.698.038.123.23.164.461.164l.577.041v.37c-.577 0-1.038-.042-1.577-.042-.538 0-1 .042-1.422.042v-.37l.5-.04c.192 0 .307-.042.346-.165.038-.123.038-.369.038-.698l.077-2.667zM102.55 32.211c0 .329 0 .575.038.698.039.123.154.164.346.164l.5.041v.37c-.384 0-.846-.042-1.384-.042-.538 0-1 .042-1.384.042v-.37l.5-.04c.192 0 .307-.042.346-.165.038-.123.038-.369.038-.698v-2.708c0-.37-.038-.656-.077-.738-.077-.083-.192-.123-.423-.123h-.423v-.329c.654-.081 1.346-.287 1.77-.492l.153.04v1.027h.038l.846-.78c.231-.246.462-.287.923-.287 1.308 0 1.846.78 1.846 2.092v2.298c0 .329 0 .575.038.698.039.123.154.164.346.164l.462.041v.37c-.27 0-.615-.042-.923-.042-.308 0-.654.042-.884.042v-3.406c0-.985-.539-1.518-1.308-1.518-.692 0-1.384.615-1.384 1.108v2.543zM108.318 30.201c.923.123 1.884.082 2.691.041 0-1.108-.384-2.01-1.192-2.01-.884 0-1.538.656-1.5 1.969m3.692-.164c0 .164 0 .328-.038.492-.692.123-1.346.164-2.038.164h-1.615c0 1.396.653 2.38 2.038 2.38.538 0 .961-.287 1.384-.574l.154.123-.23.41c-.078.164-1.04.657-1.808.657-1.692 0-2.615-1.15-2.615-2.75 0-1.148.308-1.846.808-2.297.23-.164.461-.37.692-.493.384-.205.73-.328 1.115-.328 1.23 0 2.153.862 2.153 2.216M113.124 26.015c0-.287-.038-.492-.269-.492h-.615v-.328c.615-.082 1.192-.205 1.769-.452l.115.082v7.387c0 .328 0 .574.038.697.039.123.154.164.346.164l.5.041v.37c-.423 0-.846-.041-1.422-.041-.539 0-1 .04-1.423.04v-.369l.5-.04c.192 0 .307-.042.346-.165.038-.123.038-.37.038-.697l.077-6.197zM116.47 26.015c0-.287-.039-.492-.27-.492h-.615v-.328c.615-.082 1.192-.205 1.769-.452l.115.082v7.387c0 .328 0 .574.039.697.038.123.154.164.346.164l.5.041v.37c-.423 0-.846-.041-1.423-.041-.538 0-1 .04-1.384.04v-.369l.5-.04c.192 0 .307-.042.346-.165.038-.123.038-.37.038-.697l.039-6.197zM123.122 26.631c0-.451-.039-.78-.116-.903-.077-.123-.192-.164-.461-.164l-.538-.04v-.37c.576.04 1.115.04 1.653.04.5 0 1.038 0 1.615-.04v.37l-.538.04c-.27 0-.423.041-.462.164-.077.123-.115.452-.115.903v4.103c0 1.683.846 2.175 2.307 2.175 1.23 0 2.307-.492 2.307-2.503v-3.775c0-.451-.038-.78-.115-.903-.077-.123-.192-.164-.462-.164l-.5-.04v-.37c.462 0 .885.04 1.308.04.461 0 .846-.04 1.346-.04v.37l-.5.04c-.27.041-.423.041-.462.164-.076.123-.115.452-.115.903v3.447c0 2.585-.923 3.61-3.191 3.61-1.923 0-3.038-.615-3.038-2.79l.077-4.267zM131.889 32.211c0 .329 0 .575.038.698.039.123.154.164.346.164l.5.041v.37c-.384 0-.846-.042-1.384-.042-.538 0-1 .042-1.384.042v-.37l.5-.04c.192 0 .307-.042.346-.165.038-.123.038-.369.038-.698v-2.708c0-.37-.038-.656-.077-.738-.077-.083-.192-.123-.423-.123h-.423v-.329c.654-.081 1.346-.287 1.769-.492l.115.04v1.027h.039l.846-.78c.23-.246.461-.287.923-.287 1.307 0 1.845.78 1.845 2.092v2.298c0 .329 0 .575.039.698.038.123.153.164.346.164l.461.041v.37c-.269 0-.615-.042-.923-.042-.307 0-.653.042-.884.042v-3.406c0-.985-.538-1.518-1.307-1.518-.693 0-1.385.615-1.385 1.108l.039 2.543zM138.926 25.892c0 .329-.308.657-.616.657-.307 0-.615-.328-.615-.657 0-.369.308-.656.615-.656.308-.041.616.287.616.656zm-.116 6.32c0 .328 0 .574.039.697.038.123.153.164.346.164l.5.041v.37c-.423 0-.846-.042-1.385-.042-.538 0-1 .042-1.422.042v-.37l.5-.04c.192 0 .307-.042.346-.165.038-.123.038-.37.038-.698v-2.708c0-.37-.038-.656-.077-.738-.077-.082-.192-.123-.423-.123h-.423v-.329c.654-.082 1.346-.287 1.769-.492l.115.041.077 4.35zM143.27 32.211c-.192.452-.307.903-.46 1.313h-.578l-1.922-4.842c-.077-.164-.154-.369-.346-.41l-.385-.04v-.33c.423 0 .885.042 1.308.042.423 0 .845-.041 1.307-.041v.37l-.538.04c-.308 0-.385.164-.193.698l1.346 3.447c.23-.575.5-1.108.692-1.683l.462-1.272c.307-.82.269-1.19-.039-1.19l-.461-.04v-.329c.346 0 .692.04 1.038.04.346 0 .692-.04 1.038-.04v.328l-.346.041c-.269.042-.461.452-.615.82l-1.307 3.078zM146.577 30.201c.923.123 1.885.082 2.692.041 0-1.108-.384-2.01-1.192-2.01-.884 0-1.576.656-1.5 1.969m3.653-.164c0 .164 0 .328-.038.492a11.1 11.1 0 0 1-2.038.164h-1.653c0 1.396.653 2.38 2.038 2.38.538 0 .96-.287 1.384-.574l.154.123-.231.41c-.077.164-1.038.657-1.807.657-1.692 0-2.615-1.15-2.615-2.75 0-1.148.308-1.846.807-2.297.231-.164.462-.37.693-.493.384-.205.73-.328 1.115-.328 1.307 0 2.191.862 2.191 2.216M151.768 29.544c0-.369-.038-.656-.076-.738-.077-.082-.193-.124-.423-.124h-.423v-.327c.653-.083 1.345-.288 1.768-.493l.116.04v1.19h.038l.615-.779c.27-.328.654-.492.962-.492.192 0 .423.04.5.123l-.116 1.436h-.269c-.115-.287-.346-.533-.769-.533-.5 0-1 .533-1 1.313v2.051c0 .329 0 .575.039.698.038.123.23.164.461.164l.577.041v.37c-.577 0-1.038-.042-1.577-.042-.538 0-1 .042-1.422.042v-.37l.5-.04c.192 0 .307-.042.346-.165.038-.123.038-.369.038-.698l.115-2.667zM155.614 31.72v.491c0 .74.807 1.026 1.46 1.026.693 0 1.308-.45 1.308-1.107 0-.37-.192-.698-.538-.78-.5-.123-1.115-.246-1.654-.493-.538-.205-.96-.574-.96-1.313 0-1.313 1.037-1.764 2.114-1.764.538 0 1 .123 1.461.287-.038.451-.038.862-.038 1.354h-.308v-.287c0-.616-.654-.985-1.307-.985-.962 0-1.115.574-1.115.985 0 .534.384.78 1.23.944 1.346.246 1.961.615 1.961 1.518 0 1.313-1.23 2.01-2.5 2.01a4.278 4.278 0 0 1-1.576-.287c.116-.533.116-1.108.116-1.682l.346.082zM161.804 25.892c0 .329-.307.657-.615.657-.346 0-.615-.328-.615-.657 0-.369.308-.656.615-.656.308-.041.615.287.615.656zm-.115 6.32c0 .328 0 .574.039.697.038.123.153.164.346.164l.5.041v.37c-.385 0-.846-.042-1.385-.042-.538 0-1 .042-1.422.042v-.37l.5-.04c.192 0 .307-.042.345-.165.039-.123.039-.37.039-.698v-2.708c0-.37-.039-.656-.077-.738-.077-.082-.192-.123-.423-.123h-.308v-.329c.654-.082 1.346-.287 1.77-.492l.115.041-.039 4.35zM162.881 28.929v-.247l.884-.41v-.82c0-.328 0-.616-.038-.944.423-.123.77-.328.961-.452l.154.124c-.077.533-.115 1.19-.115 1.682v.451l1.538-.081-.116.656h-1.422v3.16c0 .574.154.82.615.82a.98.98 0 0 0 .654-.246l.153.205-.538.615c-.115.124-.5.165-.73.165-.616 0-1.116-.288-1.116-1.272v-3.447l-.884.04zM171.187 28.929c.154-.452 0-.574-.423-.616l-.308-.04v-.329c.346 0 .692.04 1.077.04.384 0 .692-.04 1.076-.04v.328l-.307.041c-.27.042-.5.41-.961 1.436l-2.27 5.622c-.345.862-.768 1.478-1.691 1.478a1.35 1.35 0 0 1-.577-.165l.27-.903h.153c.154.165.423.288.577.288.654-.041 1-1.026 1.23-1.56l.27-.738c-.193-.575-.423-1.15-.616-1.723l-1.23-3.16c-.192-.451-.346-.575-.577-.575l-.192-.04v-.329c.423 0 .884.04 1.307.04.423 0 .885-.04 1.308-.04v.328l-.423.041c-.308 0-.5.124-.27.78l.731 2.01c.154.452.346.903.577 1.314l1.269-3.488z"/>
    <g>
      <path d="M83.169 5.366l1.106.043c.725.042 1.222.042 1.45.042.191 0 1.069-.042 2.557-.085l.076.085v.506l-.076.084c-.42 0-.725.042-.954.042-.229.042-.381.084-.496.169-.114.084-.153.253-.19.506-.039.253-.039.632-.039 1.096v8.812c0 .758.038 1.222.038 1.433.038.21.077.38.115.422a.69.69 0 0 0 .343.169c.153.041.573.084 1.183.126l.076.042v.506l-.076.084c-.038 0-.572 0-1.564-.042h-.993c-.19 0-1.03.042-2.556.084l-.076-.084V18.9l.076-.042c.572-.042.916-.042 1.106-.084.191-.043.306-.084.382-.17.076-.041.115-.21.153-.379.038-.21.076-.674.076-1.349V8.15c0-.759-.038-1.223-.038-1.433-.038-.211-.076-.38-.115-.422-.038-.084-.152-.127-.343-.169-.19-.042-.572-.084-1.183-.126l-.076-.084v-.506l.038-.043zM89.16 5.45l.076-.083c1.488.042 2.328.084 2.557.084.19 0 1.068-.042 2.556-.084l.077.084v.506l-.077.084c-.42 0-.725.042-.954.042a.796.796 0 0 0-.496.169c-.114.084-.152.253-.19.506-.039.253-.039.632-.039 1.096v8.938l.038 1.729h1.832c1.45 0 2.366 0 2.71-.042.343-.043.724-.127 1.03-.296.076-.168.152-.548.267-1.138.114-.59.19-.927.19-1.012l.077-.084h.42l.076.084c-.038.253-.115.76-.153 1.518-.038.759-.076 1.35-.076 1.855l-.076.084c-1.145-.042-2.633-.042-4.465-.042h-2.595c-.61 0-1.22.042-1.831.085l-.077-.085v-.337l.077-.084c.381-.211.572-.338.61-.38.038-.042.076-.464.115-1.265.038-.8.076-1.77.076-2.909V8.15c0-.759-.038-1.223-.038-1.433 0-.211-.077-.38-.115-.422-.038-.084-.152-.126-.343-.169-.153-.042-.572-.084-1.183-.126l-.076-.084V5.45zM100.378 5.45l.077-.083c1.106.042 1.946.084 2.556.084.687 0 1.565-.042 2.71-.084h.915c1.527 0 2.519.295 3.053.927.534.59.802 1.307.802 2.15 0 .548-.115 1.096-.382 1.645-.267.548-.649.97-1.145 1.349-.496.38-1.22.674-2.137.843.153.253.458.717.916 1.349l1.26 1.855c.42.633.839 1.265 1.335 1.94.458.674.763 1.054.916 1.138.152.084.267.126.343.168.076.043.267.043.458.043l.076.084v.464l-.076.084c-.305-.042-.61-.042-1.03-.042-.42 0-.878 0-1.374.042-.42-.548-1.068-1.518-1.946-2.867a54.335 54.335 0 0 0-3.13-4.385l.077-.295c.305 0 .534.042.725.042 1.03 0 1.832-.253 2.442-.8.573-.549.878-1.308.878-2.277 0-.886-.267-1.518-.801-1.982-.535-.464-1.221-.674-2.137-.674-.61 0-1.221.084-1.755.295-.077.126-.153 1.391-.153 3.71v6.535c0 .759.038 1.222.038 1.433.038.211.076.38.115.422a.687.687 0 0 0 .343.168c.153.043.572.085 1.183.127l.076.042v.506l-.076.084c-.038 0-.573 0-1.565-.042h-.992c-.19 0-1.03.042-2.556.085l-.077-.085v-.506l.077-.042c.572-.042.915-.042 1.106-.084.191-.042.305-.085.382-.169.076-.042.114-.21.152-.38.039-.21.077-.674.077-1.348v-8.77c0-.759-.038-1.223-.038-1.433-.039-.211-.077-.38-.115-.422-.038-.084-.153-.126-.343-.169-.191-.042-.573-.084-1.183-.126l-.077-.084V5.45zM118.427 15.949l.077-.084h.42l.076.084c.038.843.076 1.349.114 1.56.038.168.23.38.496.59.267.21.649.38 1.069.506.42.126.916.21 1.374.21.648 0 1.182-.126 1.717-.379.496-.253.877-.632 1.183-1.138.305-.506.42-1.054.42-1.686 0-.422-.077-.802-.191-1.139-.153-.337-.306-.59-.573-.759-.229-.21-.534-.337-.84-.421-.305-.085-.763-.211-1.373-.295-.61-.085-1.069-.211-1.412-.296a4.088 4.088 0 0 1-.992-.379 3.426 3.426 0 0 1-.84-.675 2.45 2.45 0 0 1-.534-1.011c-.152-.38-.19-.844-.19-1.265 0-1.223.381-2.235 1.144-3.036.763-.8 1.832-1.18 3.13-1.18.533 0 1.068.084 1.678.21a5.45 5.45 0 0 1 1.68.633l.075.126a13.73 13.73 0 0 0-.228 2.572l-.077.084h-.458l-.076-.084c0-.8-.038-1.307-.038-1.475 0-.17-.305-.464-.802-.76-.534-.294-1.068-.463-1.678-.463-.497 0-.993.126-1.412.337-.458.211-.764.59-.992 1.054-.23.464-.344.97-.344 1.476 0 .38.076.717.19 1.012.115.295.306.548.535.716.23.169.458.296.763.38.306.084.802.21 1.603.337 1.068.169 1.832.38 2.29.59.496.253.877.59 1.144 1.097.305.505.42 1.138.42 1.855 0 1.39-.534 2.571-1.565 3.499-1.03.928-2.29 1.391-3.777 1.391-1.221 0-2.328-.253-3.244-.716l-.038-.127c0-.464.076-1.433.076-2.951M135.103 18.268l-.344.674a4.948 4.948 0 0 1-2.594.717c-1.298 0-2.328-.421-3.053-1.307-.725-.885-1.069-1.981-1.069-3.33 0-.633.077-1.181.191-1.645.115-.464.267-.885.458-1.18.191-.338.382-.548.61-.76.23-.168.611-.42 1.145-.758.535-.337.954-.548 1.222-.632a3.77 3.77 0 0 1 1.144-.17c.916 0 1.68.212 2.29.591-.115.759-.191 1.56-.267 2.487l-.077.085h-.381l-.076-.085c-.039-.547-.039-.927-.115-1.096-.038-.21-.267-.38-.725-.632a3.033 3.033 0 0 0-1.374-.337c-.496 0-.916.126-1.297.337-.382.21-.687.59-.878 1.096-.19.506-.305 1.139-.305 1.855 0 .59.076 1.18.229 1.771.153.59.343 1.054.61 1.433.268.38.573.675.993.928.42.21.877.337 1.411.337.306 0 .65-.042.954-.126.306-.085.65-.253 1.069-.464l.229.21zM138.499 4.692l.153.126c-.077.76-.115 2.277-.115 4.554v2.445c.496-.464.954-.885 1.412-1.349a2.14 2.14 0 0 1 .343-.295c.115-.042.306-.127.535-.169.229-.042.496-.084.8-.084.459 0 .879.084 1.336.295.458.21.764.464.954.717.23.295.382.59.458 1.012.077.38.115.843.115 1.433v1.729c0 .126 0 .927.038 2.445 0 .632.076 1.011.19 1.096.115.126.497.169 1.107.169l.077.084v.422l-.077.084c-.763-.042-1.259-.084-1.526-.084-.153 0-.572.042-1.297.084l-.115-.126c.076-.844.115-1.982.115-3.331v-1.307c0-.759 0-1.35-.039-1.686-.038-.338-.114-.675-.305-.928-.19-.253-.381-.506-.648-.632-.268-.17-.611-.253-.993-.253-.42 0-.725.042-1.03.168-.305.127-.534.338-.84.633-.266.295-.457.548-.495.716-.039.211-.077.548-.077 1.139v1.77c0 .127 0 .59.038 1.392.039.8.039 1.265.077 1.39.038.128.076.211.114.296a.81.81 0 0 0 .191.126c.076.043.382.043.954.085l.076.084v.422l-.076.084c-.763-.042-1.45-.084-2.137-.084s-1.412.042-2.137.084l-.076-.084v-.422l.076-.084c.573-.042.916-.085.992-.085a.208.208 0 0 0 .191-.126c.038-.042.076-.168.115-.295.038-.126.038-.548.076-1.265.038-.716.038-1.265.038-1.644v-5.144l-.038-2.108c0-.716-.038-1.222-.076-1.517-.039-.296-.039-.464-.077-.506a.823.823 0 0 0-.19-.127C136.628 6 136.247 6 135.636 6l-.076-.084v-.422l.076-.084c1.145-.127 2.099-.38 2.862-.717M148.42 14.136c0 .928.115 1.729.305 2.487.23.717.573 1.307 1.03 1.771.459.464.993.675 1.603.675.687 0 1.298-.295 1.756-.928.458-.632.687-1.56.687-2.782 0-1.392-.268-2.572-.764-3.458-.496-.885-1.22-1.349-2.137-1.349-.763 0-1.373.295-1.831.928-.42.59-.649 1.475-.649 2.656m-1.679.675c0-.801.153-1.56.42-2.277.267-.717.801-1.35 1.526-1.897.725-.548 1.603-.801 2.595-.801 1.26 0 2.29.421 3.053 1.307.763.885 1.183 1.981 1.183 3.372 0 1.518-.458 2.74-1.374 3.71-.916.97-1.984 1.476-3.282 1.476-.84 0-1.564-.253-2.251-.759-.649-.506-1.145-1.096-1.45-1.813a6.536 6.536 0 0 1-.42-2.318M158.418 14.136c0 .928.114 1.729.305 2.487.229.717.572 1.307 1.03 1.771.458.422.992.675 1.603.675.687 0 1.297-.295 1.755-.928.458-.632.687-1.56.687-2.782 0-1.392-.267-2.572-.763-3.458-.496-.885-1.221-1.349-2.137-1.349-.763 0-1.374.295-1.832.928-.42.59-.648 1.475-.648 2.656m-1.68.675c0-.801.153-1.56.42-2.277.306-.717.802-1.35 1.527-1.897.725-.548 1.602-.801 2.595-.801 1.259 0 2.29.421 3.052 1.307.763.885 1.183 1.981 1.183 3.372 0 1.518-.458 2.74-1.374 3.71-.915.97-1.984 1.476-3.281 1.476-.84 0-1.565-.253-2.252-.759-.648-.506-1.144-1.096-1.45-1.813a6.536 6.536 0 0 1-.42-2.318M169.484 4.692l.152.126c-.076.76-.114 2.277-.114 4.554v6.198c0 .126 0 .59.038 1.39.038.802.038 1.266.076 1.392.038.127.077.21.115.295a.81.81 0 0 0 .19.126c.077 0 .382.043.955.085l.076.084v.422l-.076.084c-.764-.042-1.45-.084-2.137-.084s-1.412.042-2.137.084l-.077-.084v-.422l.077-.084c.572-.042.916-.085.992-.085a.208.208 0 0 0 .19-.126c.039-.042.077-.168.115-.295.038-.126.038-.548.076-1.265.039-.716.039-1.265.039-1.644v-5.144l-.039-2.108c0-.716-.038-1.222-.038-1.517-.038-.296-.038-.464-.076-.506a.823.823 0 0 0-.19-.127C167.613 6 167.231 6 166.62 6l-.076-.084v-.422l.077-.084c1.106-.127 2.06-.38 2.862-.717"/>
    </g>
    <path d="M65 50h.296V4H65z"/>
    <g>
      <path d="M83.411 48.15v-8.865h5.214v1.461H84.88v2.228h3.072v1.46H84.88v2.255h3.745v1.462zM93.215 48.15l-1.237-2.326-1.223 2.327h-1.591l1.946-3.348-1.873-3.191h1.566l1.163 2.113 1.126-2.113h1.579l-1.824 3.163 1.934 3.376zM99.016 44.207v-.113c0-.88-.331-1.433-1.077-1.433-.796 0-1.273.752-1.346 1.56l2.423-.014zm-2.46 1.036c.061 1.063.685 1.787 1.688 1.787.6 0 1.249-.227 1.763-.596l.183 1.39c-.538.341-1.285.54-2.043.54-1.811 0-3.011-1.334-3.011-3.42 0-2.127 1.224-3.545 2.913-3.545 1.493 0 2.325 1.05 2.325 2.652 0 .355-.049.809-.123 1.092l-3.695.057v.043zM104.168 48.363c-1.836 0-2.924-1.32-2.924-3.46 0-2.128 1.198-3.504 2.973-3.504.771 0 1.432.198 1.946.553l-.306 1.348a2.612 2.612 0 0 0-1.53-.525c-1.04 0-1.603.823-1.603 2.085 0 1.333.649 2.113 1.603 2.113.587 0 1.126-.184 1.567-.51l.232 1.361c-.49.341-1.2.54-1.958.54M108.72 41.612v3.985c0 .965.344 1.277.956 1.277.514 0 .966-.27 1.236-.568v-4.694h1.444v6.496l-1.444.227v-.964c-.465.58-1.139.992-1.861.992-1.101 0-1.774-.85-1.774-2.255v-4.496h1.444zM115.893 48.363c-1.261 0-1.921-.638-1.873-2.212l.086-3.078-.882-.114.038-1.064.88-.326.025-1.446h1.395l-.024 1.531h1.59l-.036 1.376h-1.64l-.073 3.021c-.013.61.257.894.746.894.294 0 .588-.085.881-.199l.196 1.362c-.428.17-.82.255-1.31.255M118.28 48.15v-6.496l1.443-.241v6.738h-1.444zm.721-7.73c-.563 0-.88-.397-.88-1.007 0-.596.317-1.007.88-1.007.575 0 .894.411.894 1.007 0 .61-.319 1.007-.894 1.007zM124.178 48.165h-1.542l-2.154-6.553h1.542l1.42 4.78 1.358-4.78h1.554zM130.604 44.207v-.113c0-.88-.33-1.433-1.077-1.433-.796 0-1.273.752-1.347 1.56l2.424-.014zm-2.46 1.036c.061 1.063.685 1.787 1.689 1.787.6 0 1.248-.227 1.762-.596l.183 1.39c-.538.341-1.285.54-2.043.54-1.812 0-3.011-1.334-3.011-3.42 0-2.127 1.224-3.545 2.913-3.545 1.493 0 2.325 1.05 2.325 2.652 0 .355-.049.809-.123 1.092l-3.695.057v.043zM136.062 48.15v-8.865h5.214v1.461h-3.745v2.228h3.072v1.46h-3.072v2.255h3.745v1.462zM145.204 42.732c-.966 0-1.517.922-1.517 2.127 0 1.277.551 2.086 1.42 2.086.477 0 .844-.199 1.162-.539v-3.29a1.592 1.592 0 0 0-1.065-.384zm1.065-4.056l1.444-.228v9.703h-1.444v-.638c-.38.425-.893.85-1.59.85-1.494 0-2.46-1.404-2.46-3.433 0-2.084 1.248-3.531 2.85-3.531.405 0 .845.085 1.2.213v-2.936zM150.65 41.612v3.985c0 .965.344 1.277.955 1.277.514 0 .967-.27 1.237-.568v-4.694h1.443v6.496l-1.443.227v-.964c-.466.58-1.139.992-1.861.992-1.102 0-1.774-.85-1.774-2.255v-4.496h1.444zM158.422 48.363c-1.836 0-2.924-1.32-2.924-3.46 0-2.128 1.199-3.504 2.973-3.504.771 0 1.432.198 1.946.553l-.306 1.348a2.613 2.613 0 0 0-1.53-.525c-1.04 0-1.603.823-1.603 2.085 0 1.333.649 2.113 1.603 2.113.587 0 1.126-.184 1.567-.51l.232 1.361c-.49.341-1.2.54-1.958.54M164.541 45.073c-1.408.198-1.921.524-1.921 1.22 0 .496.33.85.844.85.453 0 .82-.24 1.077-.567v-1.503zm0 2.326c-.404.567-.893.964-1.59.964-1.017 0-1.75-.808-1.75-1.843 0-1.206.758-2.228 3.34-2.327v-.156c0-.88-.318-1.248-1.126-1.248-.575 0-1.272.298-1.872.695l-.294-1.319a4.22 4.22 0 0 1 2.362-.766c1.738 0 2.41.894 2.374 2.695v2.34c0 .497.074.568.502.596l-.11 1.263c-1.077.141-1.579-.241-1.787-.894h-.049zM169.461 48.363c-1.26 0-1.92-.638-1.872-2.212l.086-3.078-.882-.114.037-1.064.882-.326.024-1.446h1.395l-.024 1.531h1.59l-.036 1.376h-1.64l-.074 3.021c-.012.61.257.894.747.894.294 0 .587-.085.881-.199l.196 1.362c-.428.17-.82.255-1.31.255M171.848 48.15v-6.496l1.444-.241v6.738h-1.444zm.722-7.73c-.563 0-.881-.397-.881-1.007 0-.596.318-1.007.88-1.007.576 0 .894.411.894 1.007 0 .61-.318 1.007-.893 1.007zM177.38 42.732c-.943 0-1.457.88-1.457 2.142 0 1.248.539 2.128 1.48 2.128.93 0 1.445-.852 1.445-2.114s-.538-2.156-1.469-2.156m-.024 5.631c-1.652 0-2.851-1.305-2.851-3.475 0-2.156 1.26-3.503 2.925-3.503 1.664 0 2.85 1.333 2.85 3.49 0 2.141-1.272 3.488-2.924 3.488M185.163 48.15v-3.985c0-.965-.33-1.291-.979-1.291-.502 0-.967.298-1.248.61v4.667h-1.445v-6.51l1.445-.228v1.035c.501-.638 1.175-1.049 1.86-1.049 1.138 0 1.81.851 1.81 2.255v4.497h-1.443z"/>
    </g>
    <g>
      <path d="M15.15 24.292h10.732v2.34c-.177-.044-.663-.088-1.193-.044-.31.044-.618.044-.883.089-.486.044-.884.088-1.237.088h-2.12v2.252h-1.06v1.237h1.06v2.253h-1.06v1.236h1.06v2.518h.398c.044 0 .618.044 1.325 0 .75 0 1.28-.044 1.722-.089.486-.044.883-.088 1.458-.088.22 0 .309.088.397.221l.044.044v6.228c-2.606-1.281-10.732-5.83-10.732-12.853l.088-5.432zm0-1.149h22.524v-8.436H15.15v8.436zm11.703 12.279v-7.818c.044-.044.133-.044.221-.088 0 0 .486-.088 1.016-.044.31.044.618.044.883.088.486.044.928.088 1.325.088h1.236v7.818h-.838a16.75 16.75 0 0 1-1.679-.089c-.485-.044-.927-.088-1.545-.088-.265.044-.442.088-.619.133zm10.821-5.3c0 6.801-8.347 11.395-10.82 12.631V36.57l.132-.133c.132-.132.22-.22.441-.22.575 0 1.016.044 1.502.088s.972.088 1.723.088h1.325l.397-.044v-2.296h.972v-1.237h-.972v-2.253h.972v-1.236h-.972v-2.518h-2.12c-.353 0-.75-.044-1.237-.088-.265-.044-.574-.044-.883-.088-.662-.089-1.237.044-1.28.044h-.045v-2.385h10.82l.045 5.83zm-11.837 5.255a1.307 1.307 0 0 0-.441-.088h-.044c-.619 0-1.06.044-1.546.088a16.75 16.75 0 0 1-1.679.089h-.839v-7.774H22.525c.397 0 .84-.044 1.325-.088.265-.044.574-.044.883-.088.53-.044.972.044.972.044.044 0 .088.044.132.044v7.773zm-5.741 5.124c3.003 2.34 5.962 3.622 6.095 3.666l.22.088.221-.088c.133-.044 3.048-1.325 6.051-3.666 4.02-3.136 6.184-6.758 6.184-10.38V13.516H14v16.342c-.044 3.754 2.076 7.464 6.095 10.644z"/>
      <path d="M23.673 19.743c0 .22-.309.441-.53.618-.53.353-1.369.84-1.766 1.06-.354-.22-1.149-.663-1.679-1.06-.353-.22-.574-.486-.574-.663v-1.28h4.505c.044.706.044 1.236.044 1.325zm-4.549-2.165h4.505V16.43h-4.505v1.148zm5.433-2.031H18.24v4.24c.044.486.353.927.972 1.325.75.53 1.899 1.192 1.943 1.192l.22.133.222-.133c.044-.044 1.28-.706 2.031-1.192.884-.574.928-1.149.928-1.325v-4.24zM31.888 16.74l-2.208 1.59v-2.077h4.682v2.12l-2.474-1.634zm2.474 2.914c0 .221-.31.486-.53.618-.574.354-1.414.84-1.811 1.06-.398-.22-1.148-.706-1.723-1.06-.176-.132-.574-.397-.574-.662v-.22l2.209-1.59 2.429 1.633v.221zm.883-4.284h-6.448v4.328c.044.486.353.928.971 1.325.795.53 1.944 1.193 1.988 1.237l.22.132.222-.132c.044-.044 1.325-.707 2.075-1.237.928-.618.928-1.148.928-1.325v-3.886c.044 0 .044-.442.044-.442zM28.002 29.37l.441.045c.265.044.53.044.751.044l1.281.044v-.883l-1.28-.044c-.178 0-.398-.044-.663-.044l-.442-.044h-.31l.045.883c.044-.044.088-.044.177 0M29.194 31.005c-.176 0-.397-.045-.618-.045-.133 0-.31-.043-.442-.043h-.309v.883h.22c.178 0 .31.044.443.044.265.044.485.044.706.044h1.325v-.883h-.353c-.31.044-.707 0-.972 0M29.194 33.478c-.176 0-.397-.044-.662-.044-.133 0-.31-.044-.442-.044h-.31l.045.883h.22c.178 0 .31.044.443.044a4.3 4.3 0 0 0 .706.045h.354c.353 0 .795 0 .927.044v-.883c-.132 0-.574 0-.927-.045h-.354zM23.63 29.46c.22 0 .44-.045.75-.045.133 0 .265-.044.442-.044h.22v-.883h-.309c-.176 0-.309.043-.441.043-.265.045-.486.045-.663.045l-1.28.044v.883l1.28-.044zM24.292 30.96c-.265.045-.486.045-.663.045l-1.28.044v.883l1.28-.043c.221 0 .442-.045.751-.045l.398-.044h.176l.044-.884h-.309l-.397.045zM24.292 33.39c-.265.044-.486.044-.707.044-.398 0-1.06.044-1.237.044v.883c.177 0 .84-.043 1.281-.043.221 0 .442-.045.751-.045l.442-.044h.176v-.883h-.309l-.397.044zM3.975 26.632c1.104 0 1.767-.706 1.855-1.943 0-.22 0-.53-.044-.84v-.087h-.928l.089.176c.044.133.088.442.088.707-.044.618-.53 1.016-1.193.972-.706-.045-1.104-.486-1.104-1.105 0-.22.045-.441.221-.662l.133-.177-.884-.132-.044.088c-.132.265-.177.574-.22.84-.089 1.28.618 2.12 1.898 2.163h.133zM3.533 20.228c.133-.486.53-.574.84-.574.132 0 .309.044.485.088.398.133.707.31.84.575.088.176.132.353.044.574-.133.486-.53.574-.84.574-.176 0-.309-.044-.485-.088-.53-.177-1.06-.575-.884-1.149m.619 2.076c.265.088.486.088.706.088.84 0 1.458-.485 1.723-1.325.132-.53.088-.971-.133-1.413-.265-.442-.706-.75-1.28-.927-.221-.089-.486-.089-.663-.089-.84 0-1.458.486-1.722 1.325-.354 1.104.176 1.988 1.369 2.341M5.963 16.165l-.045.088-.618-.309.044-.088c.133-.265.31-.53.574-.398a.345.345 0 0 1 .177.177c.044.177-.044.398-.132.53zm1.987 1.193l-1.325-.707.044-.088c.133-.221.221-.221.398-.177l1.28.177.486-.928-1.678-.177h-.31a.972.972 0 0 0-.53-.883 1.176 1.176 0 0 0-.53-.132c-.617 0-.927.618-1.236 1.192l-.442.84 3.357 1.81.486-.927zM10.026 14.045l-1.723-1.458 2.474.575.662-.84-2.915-2.429-.618.707 1.722 1.457-2.429-.574-.706.84 2.959 2.429zM14.31 9.893l-.53-.618-1.06.84-.486-.575.972-.75-.53-.663-.972.795-.353-.486 1.06-.84-.53-.662-1.811 1.502 2.385 2.959zM17.446 7.994l-.398-.706-1.192.662-1.458-2.606-.839.486 1.855 3.313zM20.67 6.802l-.31-.795-1.28.441-1.016-2.782-.883.309 1.28 3.577zM24.512 6.14h.221c.53-.045.928-.222 1.149-.487.22-.265.309-.662.265-1.104l-.177-2.385-.972.044.177 2.209c.044.75-.265.883-.53.927h-.088c-.221 0-.53-.088-.619-.839l-.176-2.164-.972.088.177 2.385c.176.883.662 1.325 1.546 1.325M28.885 3.887l.795 2.385 1.06.132.53-3.798-.928-.133-.309 2.253-.795-2.385-1.104-.133-.486 3.754.928.133zM34.14 3.445l-.927-.31-1.148 3.667.927.265zM38.91 5.565l-.882-.442-1.811 1.9.397-2.606-.927-.486-.574 4.019.971.442zM39.882 11.042l.486-.663-1.06-.839.442-.574.972.75.53-.618-1.016-.795.397-.486 1.06.84.53-.619-1.855-1.457-2.34 3.003zM43.68 10.644l.045.089c.132.176.265.353.265.485 0 .089-.044.133-.133.177-.088.044-.132.088-.22.088-.177 0-.354-.176-.442-.309l-.044-.088.53-.442zm-2.208 1.988l1.105-.972.044.088c.132.177.132.221.044.442l-.618 1.148.706.795.751-1.501c.044-.044.088-.177.088-.31a.976.976 0 0 0 1.016-.176c.84-.707.177-1.458-.309-2.032l-.618-.706-2.871 2.517.662.707zM45.006 15.68c-.177.088-.442-.09-.53-.266-.133-.22-.177-.441-.177-.75v-.221l-.883.397.044.177c.088.309.132.486.31.795.308.53.706.795 1.147.795.221 0 .398-.044.619-.177.662-.398.574-1.016.486-1.502-.045-.309-.089-.53.044-.618.088-.044.132-.044.176-.044.177 0 .31.177.354.22.088.177.176.398.22.663l.045.177.795-.354v-.088c-.044-.265-.177-.53-.354-.839-.397-.707-1.104-.928-1.722-.53-.663.397-.574 1.016-.486 1.457.044.398.088.619-.088.707M45.096 18.242l3.516-1.435.368.9-3.517 1.434zM48.98 20.405l-2.87.707.22.927 2.916-.706.22.971.796-.176-.707-2.915-.795.22zM46.772 25.043l.045.927 1.501-.088 2.385 1.236-.044-1.06-1.413-.662 1.325-.84-.089-1.148-2.208 1.546zM4.726 33.744l.795-.221-.31-1.15.575-.175.353 1.236.795-.265-.618-2.12-3.71 1.06.31.927 1.5-.441zM6.625 37.144c-.22.133-.486.177-.707.177-.353 0-.574-.132-.706-.442-.089-.22-.133-.398-.044-.574.088-.265.353-.53.706-.707.221-.088.442-.176.663-.176.353 0 .574.132.706.442.089.22.133.397.044.573-.088.265-.309.53-.662.707m1.502-.22c.132-.443.088-.928-.133-1.414-.353-.707-.883-1.06-1.59-1.06-.309 0-.662.089-1.016.265-.574.265-.927.662-1.104 1.149-.132.441-.088.927.133 1.413.353.662.883 1.06 1.59 1.06.309 0 .662-.089 1.016-.265.574-.31.927-.663 1.104-1.149M10.777 39.882l-1.723 1.37c-.442.353-.795.397-1.06.088a.712.712 0 0 1-.132-.398c.044-.176.176-.397.441-.618l1.723-1.37-.619-.75-1.899 1.458c-.397.309-.618.662-.618 1.06 0 .353.132.706.442 1.104.353.486.75.706 1.192.706.31 0 .618-.132.928-.397l1.899-1.502-.574-.75zM14 42.974l-1.412 1.767.53-2.474-.84-.706L9.85 44.52l.751.618 1.413-1.766-.53 2.473.84.707 2.429-2.96zM17.004 47.038a.998.998 0 0 1-.927.618c-.177 0-.31-.044-.486-.133l-.221-.132.972-1.944.22.133c.265.133.442.353.53.574.089.31.045.574-.088.883m-.177-2.252l-.971-.486-1.723 3.401.972.486c.486.22.883.353 1.28.353.663 0 1.193-.353 1.547-1.06.53-1.148.176-2.032-1.104-2.694M18.947 49.82l2.253.618.22-.794-1.324-.354.176-.707 1.237.31.177-.795-1.193-.31.133-.618 1.325.353.22-.795-2.252-.574zM24.512 50.04h-.265l.133-2.163h.265c.53.044 1.016.442.972 1.148-.044.707-.575 1.06-1.105 1.016m.045-3.004l-1.104-.043-.221 3.798 1.104.044h.265c1.28 0 1.943-.619 2.032-1.811.044-.574-.089-1.06-.398-1.413-.353-.31-.883-.53-1.678-.575M30.607 48.848l.133-1.016.53.84-.663.176zm-.618-2.075l-.662 4.018 1.015-.22.133-.84 1.237-.265.485.752 1.06-.221-2.252-3.401-1.016.177zM33.61 48.716l.354.928.884-.354-.31-.883zM37.012 47.435l-.221.133-1.016-1.9.22-.132a.894.894 0 0 1 .487-.133c.397 0 .706.22.927.574.353.619.044 1.193-.397 1.458m-1.546-2.562l-.972.53 1.81 3.357.973-.53c1.28-.707 1.59-1.59 1.015-2.694-.574-1.148-1.545-1.37-2.826-.663M39 46.066l.573.795.795-.53-.53-.84zM40.545 41.163l-.177 1.502.84.133.088-.619 1.81 1.855.707-.707-2.694-2.738zM45.227 40.5c-.133.177-.354.222-.53.09-.133-.134-.221-.266-.177-.53.265-.177.486-.222.662-.09a.242.242 0 0 1 .133.222c0 .088-.044.22-.088.309m-1.325-1.06c-.133.088-.265.177-.398.177-.044 0-.132 0-.177-.045-.176-.132-.088-.353 0-.485a.243.243 0 0 1 .221-.133c.044 0 .133.044.221.088.088.088.177.265.133.398m1.81-.265c-.309-.22-.662-.266-1.06-.133 0-.353-.176-.706-.441-.883-.486-.354-1.104-.133-1.59.486-.442.618-.398 1.237.132 1.634.265.176.619.22.928.133-.044.397.088.706.397.927.221.177.442.22.663.22.397 0 .75-.22 1.104-.662.265-.353.397-.706.353-1.06-.044-.22-.22-.441-.486-.662M47.435 36.88c-.044.132-.177.176-.31.176a.819.819 0 0 1-.308-.088c-.177-.089-.31-.221-.354-.31-.044-.088 0-.132 0-.22.044-.133.133-.177.31-.177.088 0 .22.044.353.088.176.089.265.177.309.31v.22zm0-1.414c-.663-.31-1.28-.133-1.59.486-.088.176-.133.353-.088.53-.221-.177-.442-.486-.265-.884.088-.176.22-.309.353-.441l.132-.089-.706-.485-.089.088a2.573 2.573 0 0 0-.485.662c-.177.398-.221.751-.089 1.105.221.618.84 1.06 1.325 1.28.442.221.795.31 1.104.31.486 0 .84-.221 1.105-.707.353-.795.088-1.458-.707-1.855zM48.804 31.58c-.75-.222-1.369.132-1.59.838 0 .089-.044.133-.044.177l-.442-.133.398-1.325-.751-.22-.663 2.208 2.12.663v-.177c0-.221.045-.398.089-.618.044-.177.265-.619.662-.53.442.132.354.618.31.75-.089.265-.221.442-.354.619l-.132.132.883.31.044-.089c.133-.265.265-.574.353-.795.133-.442.133-.84-.044-1.193a1.989 1.989 0 0 0-.839-.618"/>
      <path d="M26.323 7.95c10.247 0 18.55 8.348 18.55 18.55 0 10.247-8.347 18.55-18.55 18.55-10.246 0-18.55-8.347-18.55-18.55-.044-10.247 8.304-18.55 18.55-18.55M7.067 26.5c0 10.6 8.612 19.257 19.212 19.257S45.492 37.144 45.492 26.5c0-10.6-8.613-19.212-19.213-19.212C15.68 7.243 7.067 15.9 7.067 26.5"/>
      <path d="M26.323 52.117C12.19 52.117.707 40.633.707 26.5.707 12.367 12.19.883 26.323.883 40.457.883 51.94 12.367 51.94 26.5c0 14.133-11.527 25.617-25.617 25.617m0-51.94C11.793.177 0 12.013 0 26.5s11.793 26.323 26.323 26.323c14.487 0 26.324-11.792 26.324-26.323C52.603 12.013 40.81.177 26.323.177"/>
    </g>
  </g>
</svg>