<svg width="34" height="25" xmlns="http://www.w3.org/2000/svg"><g fill="none" fill-rule="evenodd"><path d="M17.022 23.997c-4.862 0-9.723-.002-14.584.003-.523.001-.962-.144-1.229-.6-.112-.195-.2-.436-.2-.656C1 15.917 1 9.091 1.001 2.264c0-.671.502-1.192 1.186-1.249a4.66 4.66 0 0 1 .355-.012c9.64-.001 19.28 0 28.922-.003.495 0 .969.064 1.251.506.147.232.273.526.273.793.015 6.8.012 13.6.011 20.4 0 .77-.551 1.296-1.366 1.297-2.8.003-5.6.001-8.4.001h-6.211zM3.609 21.44h26.777V3.58H3.61V21.44z" fill="#FFF"/><path d="M17.022 23.997c-4.862 0-9.723-.002-14.584.003-.523.001-.962-.144-1.229-.6-.112-.195-.2-.436-.2-.656C1 15.917 1 9.091 1.001 2.264c0-.671.502-1.192 1.186-1.249a4.66 4.66 0 0 1 .355-.012c9.64-.001 19.28 0 28.922-.003.495 0 .969.064 1.251.506.147.232.273.526.273.793.015 6.8.012 13.6.011 20.4 0 .77-.551 1.296-1.366 1.297-2.8.003-5.6.001-8.4.001h-6.211zM3.609 21.44h26.777V3.58H3.61V21.44z" stroke="#222" stroke-width=".5"/><path d="M16.818 15.667c.111-.148.166-.244.242-.318 2.97-2.927 5.943-5.852 8.916-8.777.7-.688 1.757-.512 2.153.357.224.492.102 1.001-.358 1.455-1.36 1.341-2.722 2.68-4.086 4.018-.07.068-.161.115-.243.172-.01.044-.023.087-.035.13.094.054.205.09.28.163a1812.19 1812.19 0 0 1 4.834 4.753c.513.505.614 1.066.302 1.594-.441.745-1.408.883-2.034.278-.735-.711-1.459-1.433-2.187-2.15l-2.743-2.699c-.07-.068-.142-.133-.224-.21-.08.074-.15.139-.219.206l-3.626 3.567c-.614.604-1.373.604-1.982-.002l-3.334-3.324c-.068-.068-.142-.132-.223-.21-.083.08-.156.144-.225.212-1.598 1.572-3.196 3.146-4.795 4.716-.408.4-.953.507-1.445.295-.484-.21-.803-.699-.785-1.205.015-.39.216-.687.486-.952 1.58-1.553 3.157-3.108 4.739-4.659.069-.068.165-.109.25-.162l-.001-.119c-.084-.054-.181-.094-.25-.164a2049.07 2049.07 0 0 1-4.423-4.404c-.504-.504-.591-1.095-.25-1.622.461-.714 1.412-.815 2.028-.207.815.807 1.625 1.62 2.438 2.43l6.573 6.552c.063.064.112.14.227.286" fill="#FFF"/><path d="M16.818 15.667c.111-.148.166-.244.242-.318 2.97-2.927 5.943-5.852 8.916-8.777.7-.688 1.757-.512 2.153.357.224.492.102 1.001-.358 1.455-1.36 1.341-2.722 2.68-4.086 4.018-.07.068-.161.115-.243.172-.01.044-.023.087-.035.13.094.054.205.09.28.163a1812.19 1812.19 0 0 1 4.834 4.753c.513.505.614 1.066.302 1.594-.441.745-1.408.883-2.034.278-.735-.711-1.459-1.433-2.187-2.15l-2.743-2.699c-.07-.068-.142-.133-.224-.21-.08.074-.15.139-.219.206l-3.626 3.567c-.614.604-1.373.604-1.982-.002l-3.334-3.324c-.068-.068-.142-.132-.223-.21-.083.08-.156.144-.225.212-1.598 1.572-3.196 3.146-4.795 4.716-.408.4-.953.507-1.445.295-.484-.21-.803-.699-.785-1.205.015-.39.216-.687.486-.952 1.58-1.553 3.157-3.108 4.739-4.659.069-.068.165-.109.25-.162l-.001-.119c-.084-.054-.181-.094-.25-.164a2049.07 2049.07 0 0 1-4.423-4.404c-.504-.504-.591-1.095-.25-1.622.461-.714 1.412-.815 2.028-.207.815.807 1.625 1.62 2.438 2.43l6.573 6.552c.063.064.112.14.227.286z" stroke="#222" stroke-width=".5"/></g></svg>